<?xml version="1.0" encoding="utf-8"?>
<!-- Generator: Adobe Illustrator 23.1.1, SVG Export Plug-In . SVG Version: 6.00 Build 0)  -->
<svg version="1.1" id="Layer_1" xmlns="http://www.w3.org/2000/svg" xmlns:xlink="http://www.w3.org/1999/xlink" x="0px" y="0px"
	 viewBox="0 0 643.2 189.4" style="enable-background:new 0 0 643.2 189.4;" xml:space="preserve">
<style type="text/css">
	.st0{fill:#FFFFFF;}
	.st1{fill:#DC3726;}
</style>
<g>
	<rect x="481.6" y="18.8" class="st0" width="40.9" height="149.5"/>
	<path class="st0" d="M417.7,56.9c-31.8,0-57.6,25.5-57.6,56.9c0,31.4,25.8,56.9,57.6,56.9c31.8,0,57.6-25.5,57.6-56.9
		C475.4,82.4,449.6,56.9,417.7,56.9z M417.7,130.2c-8.8,0-15.9-7.4-15.9-16.4s7.1-16.4,15.9-16.4c8.8,0,15.9,7.4,15.9,16.4
		S426.5,130.2,417.7,130.2z"/>
	<path class="st1" d="M170.5,0H18.9C8.5,0,0,8.5,0,18.9v151.5c0,10.5,8.5,18.9,18.9,18.9h151.5c10.5,0,18.9-8.5,18.9-18.9V18.9
		C189.4,8.5,180.9,0,170.5,0z"/>
	<path class="st0" d="M602.2,18.8v90.9c0,17.4-9.4,20.5-16.2,20.5c-6.8,0-15.6-5.3-15.6-16.4c0-7.3,6.2-14.9,15.6-15
		c4,0,7.4,1.4,10,3.5V57.8c-3.2-0.5-6.6-0.8-10-0.8c-32,0-57.2,24.9-57.2,56.9s25.2,56.9,57.2,56.9c32,0,57.2-23,57.2-60.9V18.8
		H602.2z"/>
	<path class="st0" d="M280.4,18.8v90.9c0,17.4,9.4,20.5,16.2,20.5c6.8,0,15.6-5.3,15.6-16.4c0-7.3-6.2-14.9-15.6-15
		c-4,0-7.4,1.4-10,3.5V57.8c3.2-0.5,6.6-0.8,10-0.8c32,0,57.2,24.9,57.2,56.9s-25.2,56.9-57.2,56.9c-32,0-57.2-23-57.2-60.9V18.8
		H280.4z"/>
	<path class="st0" d="M84.1,37.5V106c0,13.1,7.1,15.4,12.2,15.4c5.2,0,11.7-4,11.7-12.3c0-5.5-4.7-11.3-11.7-11.3
		c-3,0-5.5,1.1-7.5,2.7V66.9c2.4-0.4,4.9-0.6,7.5-0.6c24.1,0,43.1,18.7,43.1,42.8s-19,42.8-43.1,42.8c-24.1,0-43.1-17.3-43.1-45.9
		V37.5H84.1z"/>
</g>
</svg>
