<svg id="Layer_1" data-name="Layer 1" xmlns="http://www.w3.org/2000/svg" viewBox="0 0 251.28 43.62"><defs><style>.cls-1{fill:#231f20;}</style></defs><title>Naadam_Logotype_Black</title><path class="cls-1" d="M13.56,62.26h7v-30l14,30h7.73V18.63h-7v30l-14-30H13.56Zm74.63,0L72,18.63h-7L48.93,62.26h7.29l2.62-7.17H78.28l2.62,7.17ZM68.56,28,76,48.49H61.14Zm63.92,34.27L116.34,18.63h-7L93.22,62.26h7.29l2.62-7.17h19.44l2.62,7.17ZM112.85,28l7.42,20.5H105.43Zm26-9.35V62.26h12.78c12.46,0,21.5-8.35,21.5-21.81s-9-21.81-21.5-21.81Zm13,6.61c7.91,0,14.21,5.42,14.21,15.21s-6.3,15.21-14.21,15.21h-6V25.24Zm63.27,37L199,18.63h-7L175.86,62.26h7.29l2.62-7.17h19.45l2.62,7.17ZM195.49,28l7.42,20.5H188.08Zm26.22,34.27h7V34.59l11.47,27.67h6.23l11.47-27.67V62.26h7V18.63h-7.73L243.27,52.29,229.44,18.63h-7.73Z" transform="translate(-13.56 -18.63)"/></svg>