<?xml version="1.0" encoding="utf-8"?>
<!-- Generator: Adobe Illustrator 23.0.6, SVG Export Plug-In . SVG Version: 6.00 Build 0)  -->
<svg version="1.0" id="Layer_1" xmlns="http://www.w3.org/2000/svg" xmlns:xlink="http://www.w3.org/1999/xlink" x="0px" y="0px"
	 viewBox="0 0 720 233.3" style="enable-background:new 0 0 720 233.3;" xml:space="preserve">
<style type="text/css">
	.st0{fill:none;}
	.st1{fill:#FFFFFF;}
	.st2{fill:#003C71;}
	.st3{fill:#00AAA6;}
</style>
<rect class="st0" width="720" height="233.3"/>
<g>
	<polygon class="st1" points="603.4,103.4 565.9,147.6 565.5,147.5 585,114.3 526.3,120.6 526.8,120.1 562.9,112.1 563.3,112 
		603.2,103.1 	"/>
	<g>
		<path class="st2" d="M195.9,83.3l-27.1,63.9c-0.7,1.7-2.4,2.9-4.4,2.9l-13.7,0L139,117.2l-14.3,30.1c-0.8,1.6-2.4,2.7-4.3,2.7
			l-13.4,0L83.3,83.3h21.1l13.2,42.6L131,95l-4.2-11.7h18.9l14.4,42.6l16.5-42.6H195.9z"/>
		<path class="st2" d="M249.1,83.3l-1.7,9.6c-0.4,2.2-2.4,3.9-4.7,3.9H220l-2.2,12.5l25.8,0l-1.7,9.6c-0.4,2.2-2.4,3.9-4.7,3.9
			l-21.8,0l-2.4,13.8l26.7,0l-1.7,9.6c-0.4,2.2-2.4,3.9-4.7,3.9l-42.6,0l11.7-66.8H249.1z"/>
		<path class="st2" d="M303.7,130.2c0,15.8-19.4,20.9-32.4,20.9c-11.5,0-17.9-2.2-25.1-5.3l2.7-15.6c3.2,3.4,13.8,7.1,22.8,7.1
			c5.1,0,11-1.8,11-6c0-10.3-28.7-9-28.7-28.9c0-11.4,10.7-20.1,28.7-20.1c10.4,0,17.9,2.1,22.3,4.1l-1.5,8.8
			c-0.3,1.8-1.9,3.2-3.8,3.2c-0.5,0-0.9-0.1-1.4-0.2c-5.2-2-10.1-2.6-13.9-2.6c-2.4,0-9.9,0.5-9.9,5.4
			C274.5,110.7,303.7,109.8,303.7,130.2z"/>
		<path class="st2" d="M370.7,83.3l-1.7,9.6c-0.4,2.2-2.4,3.9-4.7,3.9h-15.8l-8.6,49.3c-0.4,2.2-2.4,3.9-4.7,3.9l-15.8,0l9.3-53.3
			h-19.9l2.4-13.5H370.7z"/>
		<path class="st2" d="M397.9,83.3l-10.5,59.9c-3.7,21.3-16.7,31.9-30.5,35.7L346,166c9.8-1.4,18.8-6.9,21.5-22.8L378,83.3
			L397.9,83.3z"/>
		<path class="st2" d="M454.6,83.3l-1.7,9.6c-0.4,2.2-2.4,3.9-4.7,3.9l-22.7,0l-2.2,12.5l25.8,0l-1.7,9.6c-0.4,2.2-2.4,3.9-4.7,3.9
			h-21.8l-2.4,13.8l26.7,0l-1.7,9.6c-0.4,2.2-2.4,3.9-4.7,3.9h-42.6L408,83.3H454.6z"/>
		<path class="st2" d="M519,83.3l-1.7,9.6c-0.4,2.2-2.4,3.9-4.7,3.9h-15.8l-8.6,49.3c-0.4,2.2-2.4,3.9-4.7,3.9l-15.8,0l9.3-53.3
			h-19.9l2.4-13.5H519z"/>
	</g>
	<g>
		<path class="st3" d="M562.9,112.2l-10.6-15.7c0,0-4.7,5.3-5.8,6.5c-1.1,1.2-2.1,2-3.9,1.7c-2.2-0.3-12.1-2.4-12.1-2.4
			s-0.8,12.2-0.9,13.3c-0.1,1.2-0.5,2.8-2.7,4.6L562.9,112.2z"/>
		<path class="st3" d="M603,103.2l12.5-22.7c0,0-8.2,3.6-10.9,4.7c-2.7,1.2-3.8,1-4.2-0.9c-0.3-1.8-2.4-15.7-2.5-16.5
			c-0.8,0.8-14.4,14.6-16.3,16.5c-2,1.9-3.3,2.1-5,0.9c-1.7-1.2-6.9-4.7-6.9-4.7l-6.5,31.6L603,103.2z"/>
		<path class="st3" d="M626.1,115.7c0.8-1.2,9.9-13.3,9.9-13.3s-11.1,2-13.7,2.4c-2,0.3-2.3-0.5-2.4-1.7c-0.1-0.6-0.4-7.3-0.4-7.3
			l-16.2,7.8l-37.4,44l27.6,4.3c0,0,0.1-4.2,0.2-7.4c0.2-3.1,1.9-3.7,3-4.3c1.1-0.7,32.5-18.9,32.5-18.9l-3.2-1.7
			C624.2,118.6,625.2,116.9,626.1,115.7"/>
	</g>
	<path class="st2" d="M522.3,121.2c0,0,13.3,15.7,13.9,16.4c3.2,3.7,3.1,5.2-0.1,9.2c-2.5,3.1-4.2,5.1-4.2,5.1s18.5-3.1,21.1-3.5
		c2.4-0.4,4.7,0.3,4.1,3.5c-0.4,2.2-2.6,14.4-2.6,14.4l11-18.7l19.5-33.1l-58.5,6.3L522.3,121.2z"/>
</g>
</svg>
